<svg viewBox="0 0 1024 1024" xmlns="http://www.w3.org/2000/svg"><path d="M981.80396 245.351434h-103.532606l6.330181-5.064404-6.138828-8.036848c-88.171313-115.428848-221.743838-181.630707-366.466586-181.630707-144.104727 0-278.222869 66.176-367.967677 181.558303l-6.46206 8.308363 6.485333 4.865293H42.193455v534.630142h103.413656l-6.412929 4.809697 6.335353 8.292848C233.708606 908.511677 367.281131 974.713535 511.996121 974.713535c144.108606 0 278.229333-66.176 367.972849-181.559596l6.463353-8.309656-6.485333-4.864h101.858263V245.351434zM511.996121 102.456889c39.729131 0 81.978182 54.458182 111.418182 142.894545H400.535273c29.026263-88.435071 71.289535-142.894545 111.460848-142.894545z m167.262384 142.894545l-1.622626-5.222141c-15.472485-49.784242-35.569778-92.077253-58.61495-123.606626 78.681212 21.132929 149.761293 65.470061 204.735354 128.828767H679.258505zM405.33204 116.425697C382.38901 148.075313 362.686061 190.449778 347.880727 240.252121l-1.515313 5.099313H200.23596c55.058101-63.454384 126.271354-107.831596 205.09608-128.925737z m105.490101 806.442667c-0.372364-0.001293-0.744727-0.006465-1.118383-0.007758-39.511919-0.667152-81.418343-54.98699-110.677334-142.877737h222.873859c-28.934465 88.154505-71.021899 142.541576-111.078142 142.885495zM344.740202 779.982869l1.621333 5.215676c15.485414 49.825616 35.602101 92.148364 58.670546 123.686788-78.747152-21.103192-149.417374-65.471354-203.509657-128.902464h143.217778z m273.497212 129.039515c22.683152-31.464727 41.981414-73.412525 56.356202-124.070788l1.410586-4.97002H823.756283c-55.156364 63.569455-126.526061 107.993212-205.518869 129.040808z m-12.781899-418.160485l-70.093576 70.092283-132.395959-132.397253L118.89002 712.62901h-9.342707V312.705293h804.904081v399.923717h-87.228768L605.455515 490.861899z" fill="#333333" p-id="676"></path><path d="M769.00202 372.482586c-38.940444 0-70.09099 31.151838-70.09099 70.09099s31.150545 70.09099 70.09099 70.09099c38.939152 0 70.09099-31.151838 70.09099-70.09099s-31.151838-70.09099-70.09099-70.09099z m0 109.030141c-21.809131 0-38.940444-17.131313-38.940444-38.939151s17.131313-38.939152 38.940444-38.939152c21.807838 0 38.939152 17.131313 38.939152 38.939152s-17.131313 38.939152-38.939152 38.939151z" fill="#333333" p-id="677"></path></svg>